<svg width="774" height="113" viewBox="0 0 774 113" fill="none" xmlns="http://www.w3.org/2000/svg">
<path d="M61.05 111L25.65 64.5V111H-2.64496e-06V5.7H25.65V51.9L60.75 5.7H90.9L50.1 57.3L92.4 111H61.05ZM99.4898 69C99.4898 60.4 101.09 52.85 104.29 46.35C107.59 39.85 112.04 34.85 117.64 31.35C123.24 27.85 129.49 26.1 136.39 26.1C142.29 26.1 147.44 27.3 151.84 29.7C156.34 32.1 159.79 35.25 162.19 39.15V27.3H187.84V111H162.19V99.15C159.69 103.05 156.19 106.2 151.69 108.6C147.29 111 142.14 112.2 136.24 112.2C129.44 112.2 123.24 110.45 117.64 106.95C112.04 103.35 107.59 98.3 104.29 91.8C101.09 85.2 99.4898 77.6 99.4898 69ZM162.19 69.15C162.19 62.75 160.39 57.7 156.79 54C153.29 50.3 148.99 48.45 143.89 48.45C138.79 48.45 134.44 50.3 130.84 54C127.34 57.6 125.59 62.6 125.59 69C125.59 75.4 127.34 80.5 130.84 84.3C134.44 88 138.79 89.85 143.89 89.85C148.99 89.85 153.29 88 156.79 84.3C160.39 80.6 162.19 75.55 162.19 69.15ZM232.046 -1.43051e-06V111H206.396V-1.43051e-06H232.046ZM276.285 -1.43051e-06V111H250.635V-1.43051e-06H276.285ZM332.973 112.2C324.773 112.2 317.373 110.45 310.773 106.95C304.273 103.45 299.123 98.45 295.323 91.95C291.623 85.45 289.773 77.85 289.773 69.15C289.773 60.55 291.673 53 295.473 46.5C299.273 39.9 304.473 34.85 311.073 31.35C317.673 27.85 325.073 26.1 333.273 26.1C341.473 26.1 348.873 27.85 355.473 31.35C362.073 34.85 367.273 39.9 371.073 46.5C374.873 53 376.773 60.55 376.773 69.15C376.773 77.75 374.823 85.35 370.923 91.95C367.123 98.45 361.873 103.45 355.173 106.95C348.573 110.45 341.173 112.2 332.973 112.2ZM332.973 90C337.873 90 342.023 88.2 345.423 84.6C348.923 81 350.673 75.85 350.673 69.15C350.673 62.45 348.973 57.3 345.573 53.7C342.273 50.1 338.173 48.3 333.273 48.3C328.273 48.3 324.123 50.1 320.823 53.7C317.523 57.2 315.873 62.35 315.873 69.15C315.873 75.85 317.473 81 320.673 84.6C323.973 88.2 328.073 90 332.973 90ZM424.431 112.2C417.131 112.2 410.631 110.95 404.931 108.45C399.231 105.95 394.731 102.55 391.431 98.25C388.131 93.85 386.281 88.95 385.881 83.55H411.231C411.531 86.45 412.881 88.8 415.281 90.6C417.681 92.4 420.631 93.3 424.131 93.3C427.331 93.3 429.781 92.7 431.481 91.5C433.281 90.2 434.181 88.55 434.181 86.55C434.181 84.15 432.931 82.4 430.431 81.3C427.931 80.1 423.881 78.8 418.281 77.4C412.281 76 407.281 74.55 403.281 73.05C399.281 71.45 395.831 69 392.931 65.7C390.031 62.3 388.581 57.75 388.581 52.05C388.581 47.25 389.881 42.9 392.481 39C395.181 35 399.081 31.85 404.181 29.55C409.381 27.25 415.531 26.1 422.631 26.1C433.131 26.1 441.381 28.7 447.381 33.9C453.481 39.1 456.981 46 457.881 54.6H434.181C433.781 51.7 432.481 49.4 430.281 47.7C428.181 46 425.381 45.15 421.881 45.15C418.881 45.15 416.581 45.75 414.981 46.95C413.381 48.05 412.581 49.6 412.581 51.6C412.581 54 413.831 55.8 416.331 57C418.931 58.2 422.931 59.4 428.331 60.6C434.531 62.2 439.581 63.8 443.481 65.4C447.381 66.9 450.781 69.4 453.681 72.9C456.681 76.3 458.231 80.9 458.331 86.7C458.331 91.6 456.931 96 454.131 99.9C451.431 103.7 447.481 106.7 442.281 108.9C437.181 111.1 431.231 112.2 424.431 112.2Z" fill="black"/>
<path d="M565.223 5.7V111H539.573V67.65H499.673V111H474.023V5.7H499.673V46.95H539.573V5.7H565.223ZM666.39 27.3V111H640.74V99.6C638.14 103.3 634.59 106.3 630.09 108.6C625.69 110.8 620.79 111.9 615.39 111.9C608.99 111.9 603.34 110.5 598.44 107.7C593.54 104.8 589.74 100.65 587.04 95.25C584.34 89.85 582.99 83.5 582.99 76.2V27.3H608.49V72.75C608.49 78.35 609.94 82.7 612.84 85.8C615.74 88.9 619.64 90.45 624.54 90.45C629.54 90.45 633.49 88.9 636.39 85.8C639.29 82.7 640.74 78.35 640.74 72.75V27.3H666.39ZM710.464 39.15C712.864 35.25 716.314 32.1 720.814 29.7C725.314 27.3 730.464 26.1 736.264 26.1C743.164 26.1 749.414 27.85 755.014 31.35C760.614 34.85 765.014 39.85 768.214 46.35C771.514 52.85 773.164 60.4 773.164 69C773.164 77.6 771.514 85.2 768.214 91.8C765.014 98.3 760.614 103.35 755.014 106.95C749.414 110.45 743.164 112.2 736.264 112.2C730.364 112.2 725.214 111.05 720.814 108.75C716.414 106.35 712.964 103.2 710.464 99.3V111H684.814V-1.43051e-06H710.464V39.15ZM747.064 69C747.064 62.6 745.264 57.6 741.664 54C738.164 50.3 733.814 48.45 728.614 48.45C723.514 48.45 719.164 50.3 715.564 54C712.064 57.7 710.314 62.75 710.314 69.15C710.314 75.55 712.064 80.6 715.564 84.3C719.164 88 723.514 89.85 728.614 89.85C733.714 89.85 738.064 88 741.664 84.3C745.264 80.5 747.064 75.4 747.064 69Z" fill="black" fill-opacity="0.89"/>
</svg>
